<svg width="20" height="20" viewBox="0 0 20 20" fill="none" xmlns="http://www.w3.org/2000/svg">
<path d="M7.96938 1.87549H2.65612C2.22458 1.87549 1.87476 2.22532 1.87476 2.65685V7.97011C1.87476 8.40164 2.22458 8.75147 2.65612 8.75147H7.96938C8.40091 8.75147 8.75074 8.40164 8.75074 7.97011V2.65685C8.75074 2.22532 8.40091 1.87549 7.96938 1.87549Z" stroke="#8B9499" stroke-width="1.00189" stroke-linecap="round" stroke-linejoin="round"/>
<path d="M17.3446 1.87524H12.0313C11.5998 1.87524 11.25 2.22507 11.25 2.65661V7.96986C11.25 8.4014 11.5998 8.75123 12.0313 8.75123H17.3446C17.7761 8.75123 18.126 8.4014 18.126 7.96986V2.65661C18.126 2.22507 17.7761 1.87524 17.3446 1.87524Z" stroke="#8B9499" stroke-width="1.00189" stroke-linecap="round" stroke-linejoin="round"/>
<path d="M7.96907 11.2502H2.65581C2.22428 11.2502 1.87445 11.6001 1.87445 12.0316V17.3449C1.87445 17.7764 2.22428 18.1262 2.65581 18.1262H7.96907C8.4006 18.1262 8.75043 17.7764 8.75043 17.3449V12.0316C8.75043 11.6001 8.4006 11.2502 7.96907 11.2502Z" stroke="#8B9499" stroke-width="1.00189" stroke-linecap="round" stroke-linejoin="round"/>
<path d="M17.3446 11.2502H12.0313C11.5998 11.2502 11.25 11.6001 11.25 12.0316V17.3449C11.25 17.7764 11.5998 18.1262 12.0313 18.1262H17.3446C17.7761 18.1262 18.126 17.7764 18.126 17.3449V12.0316C18.126 11.6001 17.7761 11.2502 17.3446 11.2502Z" stroke="#8B9499" stroke-width="1.00189" stroke-linecap="round" stroke-linejoin="round"/>
</svg>
