<svg width="16" height="16" viewBox="0 0 16 16" fill="none" xmlns="http://www.w3.org/2000/svg">
<path d="M3.50098 3.50043L4.12611 13.5026C4.15581 14.0806 4.57621 14.5028 5.12633 14.5028H10.8776C11.4299 14.5028 11.8425 14.0806 11.8778 13.5026L12.5029 3.50043" stroke="black" stroke-width="1.00189" stroke-linecap="round" stroke-linejoin="round"/>
<path d="M2.50098 3.50068H13.5034" stroke="black" stroke-width="1.00189" stroke-miterlimit="10" stroke-linecap="round"/>
<path d="M6.00147 3.49934V2.24889C6.00118 2.15028 6.02039 2.05259 6.05799 1.96143C6.09559 1.87028 6.15085 1.78745 6.22057 1.71773C6.2903 1.648 6.37312 1.59275 6.46428 1.55514C6.55544 1.51754 6.65313 1.49833 6.75174 1.49862H9.25264C9.35125 1.49833 9.44894 1.51754 9.54009 1.55514C9.63125 1.59275 9.71408 1.648 9.7838 1.71773C9.85353 1.78745 9.90878 1.87028 9.94639 1.96143C9.98399 2.05259 10.0032 2.15028 10.0029 2.24889V3.49934" stroke="black" stroke-width="1.00189" stroke-linecap="round" stroke-linejoin="round"/>
<path d="M8.0022 5.49933V12.5009" stroke="black" stroke-width="1.00189" stroke-linecap="round" stroke-linejoin="round"/>
<path d="M5.75122 5.49933L6.00128 12.5009" stroke="black" stroke-width="1.00189" stroke-linecap="round" stroke-linejoin="round"/>
<path d="M10.2523 5.49933L10.0022 12.5009" stroke="black" stroke-width="1.00189" stroke-linecap="round" stroke-linejoin="round"/>
</svg>
