<svg width="24" height="24" viewBox="0 0 24 24" fill="none" xmlns="http://www.w3.org/2000/svg">
<mask id="mask0_25_7008" style="mask-type:luminance" maskUnits="userSpaceOnUse" x="2" y="2" width="20" height="20">
<path d="M12 21C16.9706 21 21 18.9853 21 16.5C21 14.0147 16.9706 12 12 12C7.02944 12 3 14.0147 3 16.5C3 18.9853 7.02944 21 12 21Z" fill="white" stroke="white" stroke-width="2" stroke-linecap="round" stroke-linejoin="round"/>
<path d="M15.6 17.4C16.097 17.4 16.5 16.9971 16.5 16.5C16.5 16.0029 16.097 15.6 15.6 15.6C15.1029 15.6 14.7 16.0029 14.7 16.5C14.7 16.9971 15.1029 17.4 15.6 17.4Z" fill="white" stroke="black" stroke-width="2" stroke-linecap="round" stroke-linejoin="round"/>
<path d="M12 5.25L7.05005 3V7.5L12 5.25Z" fill="white"/>
<path d="M7.05005 16.5V7.5M7.05005 7.5V3L12 5.25L7.05005 7.5Z" stroke="white" stroke-width="2" stroke-linecap="round" stroke-linejoin="round"/>
</mask>
<g mask="url(#mask0_25_7008)">
<path d="M1.19995 1.2H22.8V22.8H1.19995V1.2Z" fill="#0980D0"/>
</g>
</svg>
