<svg width="114" height="80" viewBox="0 0 114 80" fill="none" xmlns="http://www.w3.org/2000/svg">
<path d="M99.4928 76.0966C99.4928 75.3437 99.6561 74.6713 99.9828 74.0792C100.316 73.4798 100.767 73.0157 101.335 72.6867C101.911 72.3505 102.553 72.1824 103.263 72.1824C104.094 72.1824 104.822 72.4017 105.447 72.8402C106.072 73.2788 106.508 73.8855 106.757 74.6603H105.042C104.872 74.2948 104.63 74.0207 104.318 73.838C104.012 73.6552 103.657 73.5639 103.253 73.5639C102.82 73.5639 102.433 73.6699 102.092 73.8818C101.758 74.0865 101.495 74.3789 101.304 74.759C101.119 75.1391 101.027 75.585 101.027 76.0966C101.027 76.601 101.119 77.0469 101.304 77.4343C101.495 77.8144 101.758 78.1104 102.092 78.3224C102.433 78.527 102.82 78.6294 103.253 78.6294C103.657 78.6294 104.012 78.538 104.318 78.3553C104.63 78.1652 104.872 77.8875 105.042 77.522H106.757C106.508 78.3041 106.072 78.9144 105.447 79.353C104.829 79.7843 104.101 79.9999 103.263 79.9999C102.553 79.9999 101.911 79.8354 101.335 79.5065C100.767 79.1703 100.316 78.7061 99.9828 78.1141C99.6561 77.522 99.4928 76.8495 99.4928 76.0966Z" fill="#0D0423"/>
<path d="M92.523 79.9341H91.0318L87.6554 74.6822V79.9341H86.1642V72.27H87.6554L91.0318 77.5329V72.27H92.523V79.9341Z" fill="#0D0423"/>
<path d="M79.4458 72.281L76.9321 77.2698V79.9341H75.4409V77.2698L72.9166 72.281H74.5995L76.1972 75.7786L77.7842 72.281H79.4458Z" fill="#0D0423"/>
<path d="M64.279 78.717H66.7288V79.9341H62.7878V72.281H64.279V78.717Z" fill="#0D0423"/>
<path d="M52.7515 73.5199V75.4387H55.2546V76.6557H52.7515V78.6841H55.5741V79.9341H51.2604V72.27H55.5741V73.5199H52.7515Z" fill="#0980D0"/>
<path d="M43.9283 72.281V79.9341H42.4371V74.9563L40.4453 79.9341H39.3163L37.3139 74.9563V79.9341H35.8227V72.281H37.5162L39.8808 77.9715L42.2454 72.281H43.9283Z" fill="#0980D0"/>
<path d="M26.8988 78.4758H23.9378L23.4478 79.9341H21.8821L24.5555 72.27H26.2917L28.9652 79.9341H27.3888L26.8988 78.4758ZM26.4941 77.2478L25.4183 74.0462L24.3425 77.2478H26.4941Z" fill="#0980D0"/>
<path d="M13.4826 74.5836C13.3122 74.2619 13.0779 74.0171 12.7796 73.8489C12.4814 73.6808 12.1335 73.5968 11.7358 73.5968C11.2956 73.5968 10.905 73.6991 10.5642 73.9038C10.2233 74.1084 9.95706 74.4008 9.76533 74.7809C9.57361 75.161 9.47775 75.5996 9.47775 76.0966C9.47775 76.6083 9.57361 77.0542 9.76533 77.4343C9.96416 77.8144 10.2375 78.1067 10.5855 78.3114C10.9334 78.5161 11.3382 78.6184 11.7997 78.6184C12.3678 78.6184 12.8329 78.4649 13.195 78.1579C13.5572 77.8436 13.7951 77.4087 13.9087 76.8532H11.3524V75.68H15.3785V77.0176C15.2791 77.5512 15.0661 78.0446 14.7395 78.4978C14.4128 78.951 13.9903 79.3165 13.472 79.5942C12.9607 79.8647 12.3855 79.9999 11.7465 79.9999C11.0293 79.9999 10.3796 79.8354 9.79729 79.5065C9.22212 79.1703 8.76767 78.7061 8.43393 78.1141C8.10729 77.522 7.94397 76.8495 7.94397 76.0966C7.94397 75.3437 8.10729 74.6713 8.43393 74.0792C8.76767 73.4798 9.22212 73.0157 9.79729 72.6867C10.3796 72.3505 11.0257 72.1824 11.7358 72.1824C12.5737 72.1824 13.3015 72.3943 13.9193 72.8183C14.5371 73.2349 14.9631 73.8234 15.1975 74.5836H13.4826Z" fill="#0980D0"/>
<path d="M73.2259 0L55.9102 15.4425L62.5701 21.8564L67.7769 16.4293V24.0767H78.4327V16.4293L83.5184 21.8564L90.2994 15.4425L73.2259 0Z" fill="black"/>
<path d="M0.935974 29.1878C0.935974 31.2514 2.41789 35.7827 3.8042 38.5422C7.34167 45.573 14.8468 51.2121 23.2603 53.1077C25.5788 53.6356 31.0523 53.6356 33.3708 53.1077C37.0995 52.2679 41.3779 50.3962 44.5329 48.2846C45.4412 47.6847 45.2066 47.7256 45.2544 47.7256C45.3022 47.7256 45.2544 51.776 45.2544 53.5037H55.9102V29.1838H31.6925L31.7694 33.983L31.6925 39.7808H39.9265C36.389 43.2123 29.905 44.6132 24.4793 43.3414C20.8701 42.5255 18.2409 41.0858 15.7312 38.5662C13.9625 36.7905 11.4707 32.2238 11.4707 29.1878H0.935974Z" fill="black"/>
<path d="M55.9102 24.3159C55.9102 22.2522 54.4283 17.721 53.042 14.9614C49.5045 7.93065 41.9994 2.29161 33.5859 0.395932C31.2674 -0.131977 25.7939 -0.131977 23.4754 0.395932C19.7467 1.23579 15.4683 3.10747 12.3133 5.21911C11.405 5.81901 11.6396 5.77803 11.5918 5.77803C11.544 5.77803 11.5918 1.72771 11.5918 0H0.935974V24.3198H25.1537L25.0768 19.5207L25.1537 13.7228H16.9197C20.4571 10.2914 26.9412 8.89048 32.3669 10.1623C35.9761 10.9781 38.6053 12.4179 41.115 14.9375C42.8837 16.7131 45.3755 21.2799 45.3755 24.3159H55.9102Z" fill="#0980D0"/>
<path d="M104.089 38.0224L95.3851 29.1838L89.0885 35.8718L94.4164 41.1005H78.4327V29.1838H67.7769V51.8013H94.4164L89.0885 56.9084L95.3851 63.718L104.113 55.2372L113.064 46.6941L104.089 38.0224Z" fill="#0980D0"/>
</svg>
