<svg width="128" height="84" viewBox="0 0 128 84" fill="none" xmlns="http://www.w3.org/2000/svg">
<path d="M89.9331 11.4746H97.4498L104.688 25.0384H104.998L112.235 11.4746H119.752L108.175 31.8357V42.9697H101.51V31.8357L89.9331 11.4746Z" fill="#0980D0"/>
<path d="M67.8556 42.9697H60.6643L71.6217 11.4746H80.2698L91.2117 42.9697H84.0204L76.0697 18.6717H75.8218L67.8556 42.9697ZM67.4061 30.5901H84.3924V35.788H67.4061V30.5901Z" fill="black"/>
<path d="M36.8122 42.9697V11.4746H43.523V37.4796H57.1307V42.9697H36.8122Z" fill="black"/>
<path d="M8.55473 42.9697V11.4746H21.0775C23.4849 11.4746 25.5358 11.9308 27.2303 12.8433C28.9248 13.7455 30.2164 15.0014 31.1049 16.611C32.0038 18.2104 32.4533 20.0558 32.4533 22.1473C32.4533 24.2388 31.9987 26.0842 31.0894 27.6835C30.1802 29.2829 28.8628 30.5286 27.1373 31.4205C25.4222 32.3125 23.3454 32.7584 20.907 32.7584H12.9253V27.4221H19.8221C21.1136 27.4221 22.1778 27.2017 23.0148 26.7608C23.862 26.3097 24.4923 25.6895 24.9056 24.9C25.3292 24.1003 25.541 23.1828 25.541 22.1473C25.541 21.1015 25.3292 20.1891 24.9056 19.4099C24.4923 18.6205 23.862 18.0105 23.0148 17.5799C22.1675 17.139 21.093 16.9186 19.7911 16.9186H15.2655V42.9697H8.55473Z" fill="black"/>
<path d="M110.787 14.0992L114.292 7.4973L107.045 9.9712L105.348 4.83843L122.189 0L128 16.9436L122.682 18.3277L120.225 10.6678L116.663 16.8752L110.787 14.0992Z" fill="#0980D0"/>
<path d="M9.14507 64.0496V57.1722L3.94682 62.7601L0 59.0394L12.5143 46.8562L25.7278 59.0394L21.7075 62.7601L15.8835 57.1722V64.0496H9.14507Z" fill="#0980D0"/>
<path d="M122.768 65.9003H115.931C115.84 65.2038 115.653 64.5751 115.37 64.0143C115.087 63.4535 114.714 62.9741 114.249 62.5761C113.784 62.1781 113.232 61.8751 112.594 61.667C111.965 61.4499 111.268 61.3414 110.502 61.3414C109.144 61.3414 107.973 61.6715 106.988 62.3319C106.013 62.9922 105.261 63.9465 104.732 65.1947C104.212 66.443 103.952 67.9535 103.952 69.7264C103.952 71.5717 104.217 73.1184 104.745 74.3667C105.283 75.6059 106.035 76.5421 107.002 77.1753C107.977 77.7994 109.13 78.1115 110.461 78.1115C111.209 78.1115 111.888 78.0165 112.499 77.8266C113.118 77.6366 113.661 77.3607 114.126 76.9989C114.6 76.628 114.987 76.1803 115.288 75.6557C115.598 75.122 115.812 74.5205 115.931 73.8511L122.768 73.8918C122.649 75.122 122.289 76.3341 121.687 77.5281C121.095 78.722 120.279 79.812 119.24 80.798C118.201 81.7748 116.933 82.5527 115.438 83.1317C113.953 83.7106 112.248 84 110.324 84C107.79 84 105.52 83.4482 103.515 82.3447C101.518 81.2321 99.9414 79.613 98.7837 77.4873C97.626 75.3617 97.0471 72.7747 97.0471 69.7264C97.0471 66.6691 97.6351 64.0776 98.811 61.952C99.987 59.8263 101.578 58.2117 103.583 57.1082C105.589 56.0046 107.836 55.4529 110.324 55.4529C112.02 55.4529 113.588 55.688 115.028 56.1584C116.469 56.6197 117.736 57.2981 118.83 58.1936C119.923 59.0801 120.812 60.17 121.496 61.4635C122.18 62.757 122.604 64.2359 122.768 65.9003Z" fill="black"/>
<path d="M88.4718 55.8327V83.62H82.7288L71.5846 67.5826H71.4069V83.62H64.6383V55.8327H70.4633L81.4845 71.8429H81.7169V55.8327H88.4718Z" fill="black"/>
<path d="M29.9693 55.8327H37.5309L43.4517 67.4605H43.6978L49.6186 55.8327H57.1802L46.9385 74.3395V83.62H40.211V74.3395L29.9693 55.8327Z" fill="black"/>
<path d="M9.14541 83.62V55.8327H15.914V78.1656H27.5641V83.62H9.14541Z" fill="#0980D0"/>
</svg>
