<svg width="20" height="20" viewBox="0 0 20 20" fill="none" xmlns="http://www.w3.org/2000/svg">
<path d="M10.2449 7.51258C9.73199 7.46192 9.21593 7.57105 8.76741 7.82501C8.31888 8.07898 7.95982 8.46537 7.73938 8.93129C7.51895 9.3972 7.44791 9.91987 7.53599 10.4277C7.62408 10.9356 7.86698 11.4038 8.23145 11.7682C8.59591 12.1327 9.06412 12.3756 9.57197 12.4637C10.0798 12.5518 10.6025 12.4807 11.0684 12.2603C11.5343 12.0399 11.9207 11.6808 12.1747 11.2323C12.4286 10.7838 12.5378 10.2677 12.4871 9.75477C12.4294 9.17976 12.1746 8.6424 11.7659 8.23376C11.3573 7.82512 10.8199 7.57034 10.2449 7.51258V7.51258ZM16.2645 10.0005C16.2629 10.2722 16.2429 10.5435 16.2047 10.8126L17.9707 12.1977C18.0476 12.2615 18.0994 12.3504 18.1169 12.4488C18.1345 12.5471 18.1166 12.6485 18.0664 12.7348L16.3957 15.6255C16.345 15.711 16.2657 15.7759 16.1718 15.8087C16.0779 15.8415 15.9754 15.8401 15.8824 15.8048L14.1285 15.0985C14.0318 15.06 13.927 15.0461 13.8236 15.058C13.7202 15.07 13.6214 15.1074 13.5359 15.1669C13.2683 15.3512 12.987 15.515 12.6945 15.6567C12.6026 15.7014 12.5231 15.768 12.463 15.8508C12.4029 15.9335 12.3641 16.0297 12.35 16.1309L12.0871 18.0016C12.0698 18.1004 12.0188 18.1902 11.9427 18.2555C11.8666 18.3208 11.7702 18.3577 11.6699 18.3598H8.32852C8.2299 18.3581 8.13481 18.3229 8.0589 18.2599C7.983 18.1969 7.93081 18.11 7.91094 18.0134L7.64844 16.1454C7.6337 16.043 7.59389 15.9459 7.53256 15.8626C7.47122 15.7793 7.39026 15.7125 7.29688 15.6681C7.00477 15.5271 6.72445 15.3629 6.45859 15.177C6.37348 15.1178 6.27496 15.0807 6.17192 15.069C6.06888 15.0574 5.96456 15.0715 5.86836 15.1102L4.11485 15.8161C4.02192 15.8515 3.91949 15.8529 3.82559 15.8202C3.73169 15.7875 3.65236 15.7227 3.60156 15.6372L1.93086 12.7466C1.88063 12.6602 1.86268 12.5588 1.88021 12.4605C1.89773 12.3621 1.9496 12.2732 2.02656 12.2095L3.51914 11.0376C3.60091 10.9727 3.66518 10.8884 3.70611 10.7923C3.74704 10.6963 3.76333 10.5915 3.75352 10.4876C3.73945 10.3247 3.73086 10.1622 3.73086 9.9993C3.73086 9.83641 3.73906 9.67625 3.75352 9.51688C3.76226 9.41357 3.74517 9.30971 3.70378 9.21465C3.66238 9.11959 3.59799 9.03632 3.51641 8.97235L2.02461 7.80047C1.94889 7.73645 1.89812 7.64782 1.88119 7.55011C1.86427 7.45241 1.88227 7.35186 1.93203 7.2661L3.60274 4.37547C3.65347 4.28992 3.73278 4.22503 3.82668 4.19223C3.92058 4.15943 4.02305 4.16082 4.11602 4.19618L5.86992 4.90243C5.96664 4.94094 6.07141 4.95485 6.17483 4.94292C6.27825 4.93099 6.37709 4.89359 6.4625 4.83407C6.73018 4.64974 7.01145 4.48599 7.30391 4.34422C7.39585 4.29954 7.47538 4.2329 7.53547 4.15019C7.59555 4.06749 7.63435 3.97126 7.64844 3.87L7.91133 1.9993C7.9286 1.9005 7.97964 1.81077 8.05573 1.74544C8.13182 1.6801 8.22825 1.64322 8.32852 1.6411H11.6699C11.7685 1.6428 11.8636 1.67805 11.9395 1.74103C12.0154 1.80401 12.0676 1.89097 12.0875 1.98758L12.35 3.85555C12.3647 3.95792 12.4045 4.05506 12.4659 4.13834C12.5272 4.22162 12.6082 4.28845 12.7016 4.3329C12.9937 4.47389 13.274 4.63809 13.5398 4.82391C13.625 4.88313 13.7235 4.92025 13.8265 4.93191C13.9296 4.94357 14.0339 4.92941 14.1301 4.89071L15.8836 4.18485C15.9765 4.14946 16.079 4.148 16.1728 4.18073C16.2667 4.21346 16.3461 4.27827 16.3969 4.36375L18.0676 7.25438C18.1178 7.34074 18.1358 7.44213 18.1182 7.54049C18.1007 7.63884 18.0488 7.72779 17.9719 7.79149L16.4793 8.96336C16.3972 9.02806 16.3325 9.11228 16.2913 9.20834C16.25 9.3044 16.2334 9.40925 16.243 9.51336C16.2559 9.67508 16.2645 9.83758 16.2645 10.0005Z" stroke="black" stroke-opacity="0.4" stroke-width="1.00189" stroke-linecap="round" stroke-linejoin="round"/>
</svg>
