<svg width="18" height="19" viewBox="0 0 18 19" fill="none" xmlns="http://www.w3.org/2000/svg">
<path d="M13.7206 5.06269C13.7206 4.91337 13.6613 4.77016 13.5557 4.66457C13.4501 4.55898 13.3069 4.49967 13.1575 4.49967C13.0082 4.49967 12.865 4.55898 12.7594 4.66457C12.6538 4.77016 12.5945 4.91337 12.5945 5.06269V12.337L10.928 10.6704C10.8764 10.6151 10.8143 10.5708 10.7452 10.54C10.6761 10.5092 10.6016 10.4927 10.526 10.4913C10.4504 10.49 10.3753 10.5039 10.3052 10.5322C10.2351 10.5605 10.1714 10.6027 10.1179 10.6561C10.0645 10.7096 10.0223 10.7733 9.99399 10.8434C9.96568 10.9135 9.95177 10.9886 9.9531 11.0642C9.95444 11.1398 9.97098 11.2144 10.0018 11.2834C10.0325 11.3525 10.0769 11.4146 10.1322 11.4662L12.7597 14.0936C12.8652 14.1991 13.0083 14.2583 13.1575 14.2583C13.3067 14.2583 13.4499 14.1991 13.5554 14.0936L16.1829 11.4662C16.2823 11.3595 16.3365 11.2183 16.3339 11.0724C16.3313 10.9266 16.2722 10.7874 16.1691 10.6842C16.0659 10.5811 15.9268 10.522 15.7809 10.5194C15.635 10.5168 15.4939 10.571 15.3871 10.6704L13.7206 12.337V5.06269ZM1.89701 4.87502C1.74769 4.87502 1.60448 4.93434 1.49889 5.03992C1.3933 5.14551 1.33398 5.28872 1.33398 5.43804C1.33398 5.58737 1.3933 5.73058 1.49889 5.83616C1.60448 5.94175 1.74769 6.00107 1.89701 6.00107H9.02868C9.17801 6.00107 9.32121 5.94175 9.4268 5.83616C9.53239 5.73058 9.59171 5.58737 9.59171 5.43804C9.59171 5.28872 9.53239 5.14551 9.4268 5.03992C9.32121 4.93434 9.17801 4.87502 9.02868 4.87502H1.89701ZM1.89701 8.62853C1.74769 8.62853 1.60448 8.68785 1.49889 8.79344C1.3933 8.89902 1.33398 9.04223 1.33398 9.19156C1.33398 9.34088 1.3933 9.48409 1.49889 9.58968C1.60448 9.69526 1.74769 9.75458 1.89701 9.75458H6.02587C6.1752 9.75458 6.31841 9.69526 6.42399 9.58968C6.52958 9.48409 6.5889 9.34088 6.5889 9.19156C6.5889 9.04223 6.52958 8.89902 6.42399 8.79344C6.31841 8.68785 6.1752 8.62853 6.02587 8.62853H1.89701ZM1.89701 12.382C1.74769 12.382 1.60448 12.4414 1.49889 12.5469C1.3933 12.6525 1.33398 12.7957 1.33398 12.9451C1.33398 13.0944 1.3933 13.2376 1.49889 13.3432C1.60448 13.4488 1.74769 13.5081 1.89701 13.5081H4.52447C4.67379 13.5081 4.817 13.4488 4.92259 13.3432C5.02818 13.2376 5.0875 13.0944 5.0875 12.9451C5.0875 12.7957 5.02818 12.6525 4.92259 12.5469C4.817 12.4414 4.67379 12.382 4.52447 12.382H1.89701Z" fill="#51566C"/>
</svg>

 