<svg width="24" height="24" viewBox="0 0 24 24" fill="none" xmlns="http://www.w3.org/2000/svg">
<path d="M15.7505 12.0009C14.7866 12.0009 13.8546 11.5705 13.1252 10.7895C12.4158 10.0277 11.9826 9.01174 11.9062 7.92971C11.8247 6.77549 12.1767 5.71408 12.8973 4.94054C13.6179 4.16699 14.6254 3.74974 15.7505 3.74974C16.8677 3.74974 17.878 4.17449 18.5963 4.94616C19.3215 5.72533 19.6745 6.78486 19.593 7.92924C19.5147 9.01268 19.0819 10.0281 18.374 10.789C17.6464 11.5705 16.7149 12.0009 15.7505 12.0009Z" fill="#0980D0"/>
<path d="M21.9286 20.2497H9.57C9.3713 20.2508 9.17501 20.2062 8.99623 20.1195C8.81744 20.0328 8.66094 19.9062 8.53875 19.7496C8.40914 19.5797 8.31964 19.3827 8.27694 19.1734C8.23424 18.964 8.23946 18.7477 8.29219 18.5406C8.68688 16.9558 9.66469 15.6414 11.1197 14.74C12.4111 13.9403 14.055 13.4997 15.7491 13.4997C17.4764 13.4997 19.0772 13.9216 20.3761 14.7208C21.8344 15.6175 22.8136 16.9394 23.2064 18.5435C23.2585 18.7507 23.2631 18.967 23.22 19.1762C23.1768 19.3855 23.0869 19.5822 22.957 19.7519C22.835 19.9079 22.6788 20.0338 22.5006 20.1201C22.3223 20.2064 22.1266 20.2507 21.9286 20.2497Z" fill="#0980D0"/>
<path d="M6.89041 12.1885C5.24064 12.1885 3.79012 10.6546 3.65557 8.76945C3.589 7.80369 3.88998 6.91059 4.49944 6.25566C5.10234 5.60728 5.95277 5.25005 6.89041 5.25005C7.82804 5.25005 8.67191 5.60916 9.27809 6.26128C9.89224 6.92138 10.1923 7.8126 10.122 8.77039C9.98741 10.655 8.53736 12.1885 6.89041 12.1885Z" fill="#0980D0"/>
<path d="M9.9691 13.6622C9.14445 13.259 8.07414 13.0574 6.89132 13.0574C5.51019 13.0574 4.1689 13.4175 3.11406 14.071C1.91811 14.8131 1.11362 15.8937 0.788732 17.1985C0.741187 17.3861 0.73669 17.5821 0.775578 17.7718C0.814465 17.9614 0.895731 18.1398 1.0133 18.2936C1.12485 18.4368 1.26776 18.5525 1.43104 18.6319C1.59432 18.7112 1.77362 18.752 1.95515 18.7512H7.15901C7.24685 18.7512 7.33189 18.7203 7.39932 18.664C7.46674 18.6078 7.51227 18.5296 7.52797 18.4432C7.53313 18.4136 7.53969 18.3841 7.54719 18.355C7.94475 16.7582 8.87629 15.409 10.2527 14.4254C10.3034 14.3889 10.3441 14.3404 10.3712 14.2842C10.3983 14.228 10.411 14.1659 10.4081 14.1035C10.4051 14.0412 10.3867 13.9806 10.3544 13.9272C10.3221 13.8738 10.277 13.8292 10.2232 13.7977C10.1496 13.7545 10.0652 13.7091 9.9691 13.6622Z" fill="#0980D0"/>
</svg>
