<svg width="24" height="24" viewBox="0 0 24 24" fill="none" xmlns="http://www.w3.org/2000/svg">
<path d="M12 11.6154C12.852 11.6154 13.6848 11.3627 14.3932 10.8894C15.1016 10.4161 15.6538 9.7433 15.9798 8.95617C16.3058 8.16905 16.3911 7.30291 16.2249 6.4673C16.0587 5.63169 15.6484 4.86414 15.046 4.2617C14.4436 3.65925 13.676 3.24899 12.8404 3.08277C12.0048 2.91656 11.1386 3.00187 10.3515 3.32791C9.56439 3.65394 8.89162 4.20607 8.41828 4.91447C7.94495 5.62286 7.69231 6.45571 7.69231 7.30769C7.69231 8.45016 8.14615 9.54584 8.954 10.3537C9.76185 11.1615 10.8575 11.6154 12 11.6154ZM12 12.8462C9.33 12.8462 4 14.4954 4 17.7692V20.2308H20V17.7692C20 14.4954 14.67 12.8462 12 12.8462Z" fill="#0980D0"/>
</svg>
